HIERARCHY
ROOT root
{
	OFFSET 0.000000 0.000000 0.000000
	CHANNELS 6 Xposition Yposition Zposition Zrotation Yrotation Xrotation
	JOINT lhip
	{
		OFFSET 0.058581 -0.082280 -0.017664
		CHANNELS 3 Zrotation Yrotation Xrotation
		JOINT lknee
		{
			OFFSET 0.043451 -0.386469 0.008037
			CHANNELS 3 Zrotation Yrotation Xrotation
			JOINT lankle
			{
				OFFSET -0.014790 -0.426874 -0.037428
				CHANNELS 3 Zrotation Yrotation Xrotation
				JOINT ltoe
				{
					OFFSET 0.041054 -0.060286 0.122042
					CHANNELS 3 Zrotation Yrotation Xrotation
					End Site
					{
						OFFSET 0.000000 0.000000 0.000000
					}
				}
			}
		}
	}
	JOINT rhip
	{
		OFFSET -0.060310 -0.090513 -0.013543
		CHANNELS 3 Zrotation Yrotation Xrotation
		JOINT rknee
		{
			OFFSET -0.043257 -0.383688 -0.004843
			CHANNELS 3 Zrotation Yrotation Xrotation
			JOINT rankle
			{
				OFFSET 0.019056 -0.420046 -0.034562
				CHANNELS 3 Zrotation Yrotation Xrotation
				JOINT rtoe
				{
					OFFSET -0.034840 -0.062106 0.130323
					CHANNELS 3 Zrotation Yrotation Xrotation
					End Site
					{
						OFFSET 0.000000 0.000000 0.000000
					}
				}
			}
		}
	}
	JOINT lowerback
	{
		OFFSET 0.004439 0.124404 -0.038385
		CHANNELS 3 Zrotation Yrotation Xrotation
		JOINT upperback
		{
			OFFSET 0.004488 0.137956 0.026820
			CHANNELS 3 Zrotation Yrotation Xrotation
			JOINT chest
			{
				OFFSET -0.002265 0.056032 0.002855
				CHANNELS 3 Zrotation Yrotation Xrotation
				JOINT lowerneck
				{
					OFFSET -0.013390 0.211636 -0.033468
					CHANNELS 3 Zrotation Yrotation Xrotation
					JOINT upperneck
					{
						OFFSET 0.010113 0.088937 0.050410
						CHANNELS 3 Zrotation Yrotation Xrotation
						End Site
						{
							OFFSET 0.000000 0.000000 0.000000
						}
					}
				}
				JOINT lclavicle
				{
					OFFSET 0.071702 0.114000 -0.018898
					CHANNELS 3 Zrotation Yrotation Xrotation
					JOINT lshoulder
					{
						OFFSET 0.122921 0.045205 -0.019046
						CHANNELS 3 Zrotation Yrotation Xrotation
						JOINT lelbow
						{
							OFFSET 0.255332 -0.015649 -0.022946
							CHANNELS 3 Zrotation Yrotation Xrotation
							JOINT lwrist
							{
								OFFSET 0.265709 0.012698 -0.007375
								CHANNELS 3 Zrotation Yrotation Xrotation
								End Site
								{
									OFFSET 0.000000 0.000000 0.000000
								}
							}
						}
					}
				}
				JOINT rclavicle
				{
					OFFSET -0.082954 0.112472 -0.023707
					CHANNELS 3 Zrotation Yrotation Xrotation
					JOINT rshoulder
					{
						OFFSET -0.113228 0.046853 -0.008472
						CHANNELS 3 Zrotation Yrotation Xrotation
						JOINT relbow
						{
							OFFSET -0.260127 -0.014369 -0.031269
							CHANNELS 3 Zrotation Yrotation Xrotation
							JOINT rwrist
							{
								OFFSET -0.269108 0.006794 -0.006027
								CHANNELS 3 Zrotation Yrotation Xrotation
								End Site
								{
									OFFSET 0.000000 0.000000 0.000000
								}
							}
						}
					}
				}
			}
		}
	}
}
MOTION
Frames: 10
Frame Time: 0.033333
-0.403712 2.952674 0.993521 4.479258 0.790672 84.682331 3.485207 6.120172 11.182013 -3.411303 -1.562889 -3.781130 2.685677 11.776718 -10.620672 0.000000 -0.000000 0.000000 -2.545225 -5.648665 -0.363940 1.783847 -8.340529 16.422603 3.247456 -9.726907 -9.317800 0.000000 -0.000000 0.000000 0.267482 -0.576883 1.589388 1.123058 -4.124855 12.241507 -0.264089 -2.722747 -3.629139 1.362783 2.781204 -0.328347 1.890554 0.701992 -6.587429 -28.728417 -7.314872 2.430027 -58.253560 -5.240102 9.141058 14.623526 -16.599039 0.359546 -13.988482 -3.002981 10.369550 24.764243 10.159943 3.851742 51.839142 3.520632 14.638094 -6.363966 28.050439 9.934094 16.687262 6.317591 12.232144 
-0.403752 2.950929 0.993219 4.438874 0.783836 84.569150 3.561237 6.131077 11.537471 -3.501187 -1.989252 -3.982388 2.772894 12.235292 -10.609158 0.000000 -0.000000 0.000000 -2.544816 -5.482269 -0.041978 1.999706 -7.835304 16.204973 3.595001 -10.440063 -9.536649 0.000000 -0.000000 0.000000 0.458176 -0.940699 1.932740 0.879751 -4.074030 11.962571 -0.338475 -2.845497 -2.860425 1.516307 2.916039 -1.283527 1.429459 1.296127 -7.046092 -30.035559 -5.038840 3.292253 -59.013756 -4.172965 8.601444 15.837849 -14.607804 1.145500 -13.635144 -2.258227 10.589645 25.473702 9.195006 3.715321 53.763800 2.392927 14.305542 -8.740688 22.654464 8.674114 15.241706 5.151449 11.429348 
-0.403682 2.948931 0.993132 4.304429 0.770164 84.517771 3.523801 6.091198 11.757698 -3.466634 -2.106451 -4.060084 2.695665 12.506160 -10.697907 0.000000 -0.000000 0.000000 -2.545541 -5.464474 0.129582 2.025008 -7.715375 16.177758 3.612678 -10.514911 -9.741947 0.000000 -0.000000 0.000000 0.630646 -1.306550 2.174286 0.743845 -3.883431 11.747854 -0.491185 -2.863122 -2.098582 1.677909 3.062800 -1.857870 0.957049 1.664380 -8.140152 -31.237024 -1.937594 3.713423 -58.213515 -2.253523 8.122332 14.435963 -17.361889 2.827900 -13.074453 -3.283717 10.211804 26.429892 7.236944 3.388251 54.716682 1.133510 13.229326 -10.314224 20.475767 6.278194 12.959772 5.296473 9.627380 
-0.403458 2.946087 0.993396 3.871175 0.690866 84.547221 3.309354 6.011960 11.973745 -3.313580 -2.049088 -4.186414 2.622793 12.854407 -10.813558 0.000000 -0.000000 0.000000 -2.587854 -5.458828 0.239180 1.990706 -7.592928 16.149516 3.647745 -10.336211 -9.955874 0.000000 -0.000000 0.000000 0.709811 -1.454085 2.207969 0.645877 -3.486758 11.522409 -0.529634 -2.861901 -1.174725 1.668455 3.026223 -2.002039 0.773884 1.947513 -9.757580 -31.932040 1.691587 3.820299 -57.721799 0.544977 7.177361 12.333708 -22.408631 2.529717 -12.214437 -5.948023 7.466077 27.106484 4.371616 3.080147 55.260427 -0.837827 11.550677 -10.907874 21.486467 2.464021 10.333369 6.667815 5.729099 
-0.403280 2.944800 0.993617 3.523963 0.633858 84.525741 3.172739 5.950904 12.154769 -3.233800 -1.979671 -4.312144 2.634635 13.101302 -10.837604 0.000000 -0.000000 0.000000 -2.634769 -5.308079 0.311975 1.997846 -7.529532 16.111164 3.683392 -10.273939 -10.019397 0.000000 -0.000000 0.000000 0.766047 -1.507258 2.280319 0.537811 -3.150740 11.314549 -0.513068 -2.858809 -0.619070 1.710655 3.027122 -1.988789 0.734238 1.973944 -10.463745 -32.105053 3.571774 3.696070 -58.174073 1.656832 6.152471 12.399742 -24.733359 1.164516 -12.600083 -7.066564 5.401428 27.165159 2.927286 2.963551 55.785524 -2.086093 10.774828 -11.245520 22.922057 0.699764 9.632026 7.306911 3.696311 
-0.403331 2.943369 0.993974 3.186399 0.649857 84.493172 3.172932 5.891183 12.376059 -3.202198 -1.911915 -4.458087 2.627921 13.299746 -10.880561 0.000000 -0.000000 0.000000 -2.588923 -5.217665 0.421349 1.981642 -7.500674 16.057963 3.752170 -10.144879 -10.087028 0.000000 -0.000000 0.000000 0.894053 -1.546903 2.315154 0.431329 -2.821942 11.120714 -0.499792 -2.878672 -0.069951 1.799457 3.108923 -1.867823 0.608918 1.976427 -10.947027 -32.119396 5.551663 3.528678 -59.305665 2.616178 4.833799 13.353511 -26.775597 -1.021405 -12.391023 -7.565064 3.253975 27.048008 1.514284 2.912449 56.671910 -3.700925 10.136559 -11.784572 24.836495 -0.472200 8.573892 7.834613 2.512211 
-0.403437 2.942708 0.994248 3.033939 0.674404 84.499929 3.201993 5.876518 12.418961 -3.178529 -1.896926 -4.460136 2.616606 13.379272 -10.915902 0.000000 -0.000000 0.000000 -2.533274 -5.223068 0.430345 1.952451 -7.474141 16.067458 3.809581 -10.070072 -10.116866 0.000000 -0.000000 0.000000 1.017695 -1.588751 2.359564 0.352895 -2.653407 10.905048 -0.537180 -2.911547 0.272152 1.839504 3.221246 -1.714354 0.418338 2.153102 -10.906196 -32.006184 6.830271 3.365801 -60.402219 3.063909 4.287977 14.390483 -27.387811 -1.989128 -11.388663 -7.421534 2.555430 26.859995 0.564305 2.866322 57.553016 -4.732420 9.850856 -12.123405 25.774715 -0.774711 7.743724 8.048979 1.992009 
-0.403573 2.942512 0.994414 3.006544 0.677064 84.499411 3.227442 5.927022 12.420752 -3.162806 -1.999332 -4.456328 2.620994 13.421455 -10.897644 0.000000 -0.000000 0.000000 -2.504229 -5.254128 0.431376 1.942845 -7.414045 16.071210 3.844733 -10.087314 -10.127702 0.000000 -0.000000 0.000000 1.114287 -1.646091 2.528029 0.262768 -2.570666 10.511883 -0.594471 -2.929919 0.499437 1.808234 3.181192 -1.490776 0.217194 2.433358 -10.546073 -31.900722 7.556494 3.108336 -61.094937 3.045967 4.301505 15.235203 -26.847369 -1.944865 -10.325108 -7.105308 2.506784 26.693336 -0.132807 2.759371 58.280724 -5.061637 9.804545 -12.124240 25.719370 -0.771984 7.406938 8.034307 1.309670 
-0.403805 2.942582 0.994450 3.035484 0.666189 84.491336 3.252981 5.999443 12.412255 -3.159420 -2.116049 -4.458976 2.644045 13.431407 -10.865992 0.000000 -0.000000 0.000000 -2.491245 -5.300973 0.423650 1.939038 -7.367760 16.080704 3.852916 -10.118639 -10.141974 0.000000 -0.000000 0.000000 1.198297 -1.686571 2.750703 0.169302 -2.547088 10.108562 -0.644681 -2.908638 0.558513 1.636395 3.020122 -1.185705 0.116662 2.641701 -10.081646 -31.799004 7.609536 2.880222 -61.472308 2.697233 4.452558 15.954559 -25.683444 -2.301735 -9.347043 -6.630768 2.281761 26.539627 -0.385296 2.672381 58.944639 -5.048500 9.846273 -12.096086 25.284482 -1.052633 7.086706 7.944495 0.409265 
-0.404212 2.943066 0.994462 3.091401 0.641526 84.442604 3.272584 6.045608 12.386278 -3.162908 -2.222433 -4.392008 2.694057 13.410906 -10.848466 0.000000 -0.000000 0.000000 -2.469758 -5.322014 0.423425 1.906664 -7.350335 16.111729 3.819777 -10.163860 -10.145734 0.000000 -0.000000 0.000000 1.303799 -1.684337 3.085632 0.006958 -2.519639 9.710166 -0.694328 -2.844543 0.454578 1.361696 2.696369 -0.824804 0.214917 2.746310 -9.512718 -31.615577 6.835359 2.877541 -61.420647 1.961140 4.804739 16.437277 -24.494602 -3.226408 -8.145638 -6.076357 1.293281 26.263960 -0.037350 2.722344 59.841178 -4.772226 9.955130 -12.171517 24.848611 -2.441662 6.385408 7.882742 -2.160070 
